# xmcd
#
# Track frame offsets:
#	150
#	13852
#	29635
#	48265
#	62075
#	78120
#	94964
#	115553
#	131690
#	147070
#	158891
#	172963
#	191065
#
# Disc length: 2692 seconds
#
# Revision: 1
# Processed by: cddbd v1.5.1PL2 Copyright (c) Steve Scherf et al.
# Submitted via: audiograbber 1.83.01
#
DISCID=a80a820d
DTITLE=Russell Smith - Russell Smith
DYEAR=2001
DGENRE=Country
TTITLE0=Your Eyes
TTITLE1=Lonely Knight
TTITLE2=Night Flight
TTITLE3=Hold Me
TTITLE4=Someday We Will
TTITLE5=What I Learned From Loving You
TTITLE6=Our Lady Of The Blues
TTITLE7=Tender Heart
TTITLE8=Southern Music
TTITLE9=Mississippi Gal
TTITLE10=Honky Tonk Freeway
TTITLE11=Where Did We Go Right
TTITLE12=Hesitation
EXTD=
EXTT0=
EXTT1=
EXTT2=
EXTT3=
EXTT4=
EXTT5=
EXTT6=
EXTT7=
EXTT8=
EXTT9=
EXTT10=
EXTT11=
EXTT12=
PLAYORDER=
